<?xml version="1.0" encoding="utf-8"?>
<!-- Generator: Adobe Illustrator 23.1.0, SVG Export Plug-In . SVG Version: 6.00 Build 0)  -->
<svg version="1.1" id="Layer_1" xmlns="http://www.w3.org/2000/svg" xmlns:xlink="http://www.w3.org/1999/xlink" x="0px" y="0px"
	 viewBox="0 0 37.4 37.5" style="enable-background:new 0 0 37.4 37.5;" xml:space="preserve">
<style type="text/css">
	.st0{fill:#757575;}
</style>
<g>
	<path class="st0" d="M22.7,21.3c-0.4-0.4-0.4-1,0-1.4l3.3-3.3c0.5-0.5,0.5-1.2,0-1.7l-0.1-0.1c-0.5-0.5-1.2-0.5-1.7,0l-3.3,3.3
		c-0.4,0.4-1,0.4-1.4,0l-3.3-3.3c-0.5-0.5-1.2-0.5-1.7,0L14.3,15c-0.5,0.5-0.5,1.2,0,1.7l3.3,3.3c0.4,0.4,0.4,1,0,1.4l-3.3,3.3
		c-0.5,0.5-0.5,1.2,0,1.7l0.1,0.1c0.5,0.5,1.2,0.5,1.7,0l3.3-3.3c0.4-0.4,1-0.4,1.4,0l3.3,3.3c0.5,0.5,1.2,0.5,1.7,0l0.1-0.1
		c0.5-0.5,0.5-1.2,0-1.7L22.7,21.3z"/>
	<path class="st0" d="M29.8,6.8H15c-1.2,0-2.4,0.5-3.2,1.4L1.9,18.6c-1.1,1.1-1.1,2.9,0,4.1L11.8,33c0.8,0.9,2,1.4,3.2,1.4h14.7
		c2.1,0,3.8-1.7,3.8-3.8v-20C33.6,8.5,31.9,6.8,29.8,6.8z M30.7,29.7c0,0.9-0.8,1.7-1.7,1.7H15.7c-0.9,0-1.7-0.4-2.3-1l-8.7-9.1
		c-0.4-0.4-0.4-1.1,0-1.5l8.7-9.1c0.6-0.6,1.5-1,2.3-1H29c0.9,0,1.7,0.8,1.7,1.7V29.7z"/>
</g>
</svg>
