<?xml version="1.0" encoding="utf-8"?>
<!-- Generator: Adobe Illustrator 23.1.0, SVG Export Plug-In . SVG Version: 6.00 Build 0)  -->
<svg version="1.1" id="Layer_1" xmlns="http://www.w3.org/2000/svg" xmlns:xlink="http://www.w3.org/1999/xlink" x="0px" y="0px"
	 viewBox="0 0 37.4 37.5" style="enable-background:new 0 0 37.4 37.5;" xml:space="preserve">
<style type="text/css">
	.st0{fill:#757575;}
</style>
<g>
	<path class="st0" d="M6.7,26.1l5.1-5.1c-0.2-0.7-0.4-1.4-0.4-2.2c0-4,3.3-7.3,7.3-7.3c0.8,0,1.5,0.1,2.2,0.4l3.7-3.7
		c-1.9-0.6-3.9-1-6-1C9.1,7.2,0,16.1,0,18.7C0,20.2,2.8,23.4,6.7,26.1z"/>
	<path class="st0" d="M29.8,10.6l6.1-6.1c0.6-0.6,0.6-1.7-0.1-2.2l0,0c-0.6-0.5-1.5-0.5-2.1,0.1L9.2,27l-0.4,0.4c0,0,0,0,0,0L3.1,33
		c-0.6,0.6-0.6,1.5,0,2.1c0.6,0.6,1.6,0.6,2.2,0l6.4-6.4c2.3,0.9,4.7,1.5,7.1,1.5c9.7,0,18.7-8.6,18.7-11.6
		C37.4,17,34.4,13.3,29.8,10.6z M18.8,26.1c-1.3,0-2.5-0.4-3.5-0.9l9.9-9.9c0.6,1.1,0.9,2.3,0.9,3.5C26.1,22.8,22.8,26.1,18.8,26.1z
		"/>
</g>
</svg>
