<?xml version="1.0" encoding="utf-8"?>
<!-- Generator: Adobe Illustrator 23.1.0, SVG Export Plug-In . SVG Version: 6.00 Build 0)  -->
<svg version="1.1" id="Layer_1" xmlns="http://www.w3.org/2000/svg" xmlns:xlink="http://www.w3.org/1999/xlink" x="0px" y="0px"
	 viewBox="0 0 37.4 37.5" style="enable-background:new 0 0 37.4 37.5;" xml:space="preserve">
<style type="text/css">
	.st0{fill:#757575;}
</style>
<path class="st0" d="M35,0h-3.3c-0.7,0-1.2,0.5-1.2,1.2s0.5,1.2,1.2,1.2h3c0.2,0,0.3,0.1,0.3,0.3v3.1C35,6.5,35.5,7,36.2,7
	s1.2-0.5,1.2-1.2V2.4C37.4,1.1,36.3,0,35,0z"/>
<path class="st0" d="M13.9,22.4H6.7c-0.7,0-1.2,0.5-1.2,1.2v7.3c0,0.7,0.5,1.2,1.2,1.2H14c0.7,0,1.2-0.5,1.2-1.2v-7.3
	C15.1,22.9,14.6,22.4,13.9,22.4z M12.7,29.4c0,0.2-0.1,0.3-0.3,0.3H8.2c-0.2,0-0.3-0.1-0.3-0.3v-4.2c0-0.2,0.1-0.3,0.3-0.3h4.2
	c0.2,0,0.3,0.1,0.3,0.3V29.4z"/>
<path class="st0" d="M30.8,29.7h-9.7c-0.7,0-1.3,0.6-1.2,1.2c0,0.7,0.6,1.2,1.2,1.2h9.7c0.7,0,1.2-0.5,1.2-1.2
	C32,30.1,31.4,29.7,30.8,29.7z"/>
<path class="st0" d="M30.8,15.1c-0.7,0-1.2,0.6-1.2,1.2v9.4c0,0.7,0.5,1.2,1.2,1.2s1.2-0.5,1.2-1.2v-9.4
	C31.9,15.7,31.5,15.2,30.8,15.1z"/>
<path class="st0" d="M13.9,17.5h-2.1c-0.2,0-0.4-0.2-0.4-0.4v-0.8c0-0.7-0.6-1.2-1.3-1.2s-1.2,0.5-1.2,1.2v0.8
	c0,0.2-0.2,0.4-0.4,0.4H6.7c-0.7,0-1.3,0.5-1.3,1.2s0.6,1.2,1.3,1.2h7.2c0.7,0,1.3-0.5,1.3-1.2C15.1,18,14.6,17.5,13.9,17.5z"/>
<path class="st0" d="M26,15.1c-0.7,0-1.2,0.5-1.2,1.2v0.8c0,0.2-0.2,0.4-0.4,0.4h-3.3c-0.7,0-1.2,0.5-1.2,1.2s0.6,1.2,1.2,1.2H26
	c0.7,0,1.2-0.5,1.2-1.2v-2.4C27.1,15.7,26.7,15.1,26,15.1z"/>
<path class="st0" d="M27.1,23.6c0-0.7-0.5-1.2-1.2-1.2s-1.2,0.5-1.2,1.2V26c0,0.7,0.5,1.2,1.2,1.2s1.2-0.5,1.2-1.2V23.6z"/>
<path class="st0" d="M18.5,15.1h-2.1c-0.7,0-1.2,0.5-1.2,1.2c0,0.7,0.6,1.2,1.3,1.2h2.2c0.7,0,1.2-0.5,1.2-1.2
	C19.8,15.6,19.3,15.1,18.5,15.1z"/>
<path class="st0" d="M16.4,11.8h2.1c0.8,0,1.4-0.6,1.4-1.2v-4c0-0.7-0.5-1.2-1.2-1.2s-1.2,0.5-1.2,1.2V9c0,0.2-0.2,0.4-0.4,0.4h-0.8
	c-0.7,0-1.3,0.5-1.3,1.2C15.1,11.3,15.7,11.8,16.4,11.8z"/>
<path class="st0" d="M13.9,5.4H6.7C6,5.4,5.4,6,5.4,6.6v7.3c0,0.7,0.5,1.2,1.2,1.2h7.3c0.7,0,1.2-0.5,1.2-1.2V6.6
	C15.1,6,14.6,5.4,13.9,5.4z M12.7,12.4c0,0.2-0.1,0.3-0.3,0.3H8.2c-0.2,0-0.3-0.1-0.3-0.3V8.1c0-0.2,0.1-0.3,0.3-0.3h4.2
	c0.2,0,0.3,0.1,0.3,0.3V12.4z"/>
<path class="st0" d="M30.8,5.4h-7.3c-0.7,0-1.2,0.5-1.2,1.2v7.3c0,0.7,0.5,1.2,1.2,1.2h7.3c0.7,0,1.2-0.5,1.2-1.2V6.6
	C32,5.9,31.4,5.4,30.8,5.4z M29.5,12.3c0,0.2-0.1,0.3-0.3,0.3H25c-0.2,0-0.3-0.1-0.3-0.3V8.1c0-0.2,0.1-0.3,0.3-0.3h4.2
	c0.2,0,0.3,0.1,0.3,0.3V12.3z"/>
<path class="st0" d="M5.7,35.1h-3c-0.2,0-0.3-0.1-0.3-0.3v-3.1c0-0.7-0.5-1.2-1.2-1.2S0,30.9,0,31.6V35c0,1.4,1,2.5,2.4,2.5h3.3
	c0.7,0,1.2-0.5,1.2-1.2S6.4,35.1,5.7,35.1z"/>
<path class="st0" d="M1.2,7.1c0.7,0,1.2-0.5,1.2-1.2V2.8c0-0.2,0.1-0.3,0.3-0.3h3c0.7,0,1.2-0.5,1.2-1.2S6.4,0,5.7,0l0,0H2.4
	C1,0,0,1.1,0,2.4v3.4C0,6.5,0.5,7.1,1.2,7.1z"/>
<path class="st0" d="M36.2,30.5c-0.7,0-1.2,0.5-1.2,1.2v3.1c0,0.2-0.1,0.3-0.3,0.3h-3c-0.7,0-1.2,0.5-1.2,1.2s0.5,1.2,1.2,1.2H35
	c1.3,0,2.4-1.1,2.4-2.4v-3.4C37.4,31,36.9,30.5,36.2,30.5z"/>
<path class="st0" d="M21.2,22.4h-0.9c-0.2,0-0.4-0.2-0.4-0.4v-0.8c0-0.7-0.5-1.2-1.2-1.2c-0.7,0-1.2,0.5-1.2,1.2v2.4v5
	c0,0.7,0.6,1.2,1.3,1.2s1.3-0.5,1.3-1.2v-3.4c0-0.2,0.2-0.4,0.4-0.4h0.8c0.5,0,1.1-0.5,1.1-1.2C22.4,22.9,21.8,22.4,21.2,22.4z"/>
</svg>
