<?xml version="1.0" encoding="utf-8"?>
<!-- Generator: Adobe Illustrator 23.1.0, SVG Export Plug-In . SVG Version: 6.00 Build 0)  -->
<svg version="1.1" id="Layer_1" xmlns="http://www.w3.org/2000/svg" xmlns:xlink="http://www.w3.org/1999/xlink" x="0px" y="0px"
	 viewBox="0 0 37.4 37.5" style="enable-background:new 0 0 37.4 37.5;" xml:space="preserve">
<style type="text/css">
	.st0{fill:#757575;}
</style>
<path class="st0" d="M33.7,9.4H5.8c-0.6,0-1.2-0.5-1.2-1.2c0-0.6,0.5-1.2,1.2-1.2h28.1c0.6,0,1.2-0.5,1.2-1.2c0-1.9-1.6-3.5-3.5-3.5
	H4.7C2.1,2.4,0,4.5,0,7.1v23.4c0,2.6,2.1,4.7,4.7,4.7h29c2,0,3.7-1.6,3.7-3.5V12.9C37.4,11,35.7,9.4,33.7,9.4z M30.4,24.6
	c-1.3,0-2.3-1-2.3-2.3s1-2.3,2.3-2.3s2.3,1,2.3,2.3S31.7,24.6,30.4,24.6z"/>
</svg>
